<mxfile host="65bd71144e">
    <diagram id="avuX6tN8_coUhezxWiyo" name="Page-1">
        <mxGraphModel dx="1517" dy="375" grid="1" gridSize="10" guides="1" tooltips="1" connect="1" arrows="0" fold="1" page="1" pageScale="1" pageWidth="827" pageHeight="1169" math="0" shadow="0">
            <root>
                <mxCell id="0"/>
                <mxCell id="1" parent="0"/>
                <mxCell id="9" style="edgeStyle=none;html=1;exitX=0.5;exitY=1;exitDx=0;exitDy=0;entryX=0.791;entryY=-0.002;entryDx=0;entryDy=0;entryPerimeter=0;fontSize=16;fontColor=#FFFF00;" parent="1" source="2" target="7" edge="1">
                    <mxGeometry relative="1" as="geometry"/>
                </mxCell>
                <mxCell id="10" style="edgeStyle=none;html=1;exitX=0.5;exitY=1;exitDx=0;exitDy=0;entryX=0.269;entryY=-0.008;entryDx=0;entryDy=0;entryPerimeter=0;fontSize=16;fontColor=#FFFF00;" parent="1" source="2" target="8" edge="1">
                    <mxGeometry relative="1" as="geometry"/>
                </mxCell>
                <mxCell id="2" value="&lt;b&gt;PROGETTO LARAVEL&lt;/b&gt;&lt;font color=&quot;#ffff00&quot;&gt;&lt;br&gt;&lt;/font&gt;" style="rounded=0;whiteSpace=wrap;html=1;" parent="1" vertex="1">
                    <mxGeometry x="250" y="40" width="390" height="40" as="geometry"/>
                </mxCell>
                <mxCell id="13" style="edgeStyle=none;html=1;exitX=0.5;exitY=1;exitDx=0;exitDy=0;entryX=0.5;entryY=0;entryDx=0;entryDy=0;fontSize=12;fontColor=#FFFFFF;" parent="1" source="7" target="12" edge="1">
                    <mxGeometry relative="1" as="geometry"/>
                </mxCell>
                <mxCell id="28" style="edgeStyle=none;html=1;exitX=0;exitY=0.5;exitDx=0;exitDy=0;entryX=0.996;entryY=0.433;entryDx=0;entryDy=0;entryPerimeter=0;fontSize=14;" parent="1" source="7" target="27" edge="1">
                    <mxGeometry relative="1" as="geometry"/>
                </mxCell>
                <mxCell id="7" value="&lt;h1&gt;&lt;font style=&quot;font-size: 16px&quot;&gt;SCAFFOLDING: Se inizializzo progetto&lt;/font&gt;&lt;/h1&gt;&lt;p&gt;Mi sposto nella cartella dove voglio creare il progetto (parent dir)&lt;/p&gt;&lt;p&gt;&lt;span&gt;&lt;font color=&quot;#ffff00&quot;&gt;composer create-project --prefer-dist laravel/laravel:^7&amp;nbsp; nome_progetto&lt;/font&gt;&lt;/span&gt;&lt;br&gt;&lt;/p&gt;&lt;p&gt;&lt;span&gt;apro la cartella del progetto in vscode&lt;/span&gt;&lt;/p&gt;&lt;p&gt;&lt;span&gt;installo i pacchetti necessari:&lt;/span&gt;&lt;/p&gt;&lt;p&gt;&lt;span&gt;&lt;font color=&quot;#ffff00&quot;&gt;composer require doctrine/dbal:^2&lt;/font&gt;&lt;/span&gt;&lt;/p&gt;&lt;p&gt;&lt;font color=&quot;#ffff00&quot;&gt;composer require laravel/ui:^2.4&lt;/font&gt;&lt;/p&gt;&lt;p&gt;&lt;font color=&quot;#ffff00&quot;&gt;composer remove fzaninotto/faker&lt;/font&gt;&lt;/p&gt;&lt;p&gt;&lt;font color=&quot;#ffff00&quot;&gt;composer require fakerphp/faker&lt;/font&gt;&lt;/p&gt;&lt;p&gt;&lt;font color=&quot;#ffff00&quot;&gt;composer require nesbot/carbon&lt;/font&gt;&lt;/p&gt;&lt;p&gt;&lt;font color=&quot;#ffff00&quot;&gt;php artisan ui vue --auth&lt;/font&gt;&lt;/p&gt;&lt;p&gt;installo pacchetti node: &lt;font color=&quot;#ffff00&quot;&gt;npm install&lt;/font&gt;&lt;/p&gt;&lt;p&gt;&lt;font color=&quot;#ffff00&quot;&gt;eseguo: npm run dev&lt;/font&gt;&lt;/p&gt;&lt;p&gt;aggiungo composer.lock e package.lock a gitignore&lt;br&gt;&lt;/p&gt;&lt;p&gt;creo db&lt;/p&gt;&lt;p&gt;modifico file env con impostazioni mie&lt;/p&gt;&lt;p&gt;lancio &lt;font color=&quot;#ffff00&quot;&gt;php artisan serve&lt;/font&gt; e verifico che tutto funzioni&lt;br&gt;&lt;/p&gt;&lt;p&gt;inizializzo repo git&lt;br&gt;&lt;/p&gt;&lt;p&gt;&lt;font color=&quot;#ffff00&quot;&gt;&lt;br&gt;&lt;/font&gt;&lt;/p&gt;" style="text;html=1;strokeColor=#FFFFFF;fillColor=none;spacing=5;spacingTop=-20;whiteSpace=wrap;overflow=hidden;rounded=0;fontSize=12;fontColor=#FFFFFF;" parent="1" vertex="1">
                    <mxGeometry x="40" y="110" width="390" height="490" as="geometry"/>
                </mxCell>
                <mxCell id="14" style="edgeStyle=none;html=1;exitX=0.5;exitY=1;exitDx=0;exitDy=0;fontSize=12;fontColor=#FFFFFF;" parent="1" source="8" target="12" edge="1">
                    <mxGeometry relative="1" as="geometry"/>
                </mxCell>
                <mxCell id="8" value="&lt;h1&gt;&lt;font style=&quot;font-size: 16px&quot;&gt;SCAFFOLDING: Se clono repo&lt;/font&gt;&lt;/h1&gt;&lt;p&gt;&lt;span&gt;apro vscode e clono repo&lt;/span&gt;&lt;br&gt;&lt;/p&gt;&lt;p&gt;&lt;span&gt;&lt;font color=&quot;#ffff33&quot;&gt;composer install&lt;/font&gt;&lt;/span&gt;&lt;/p&gt;&lt;p&gt;copio .env.example e lo rinomino in .env e genero la key:&lt;span&gt;&lt;br&gt;&lt;/span&gt;&lt;/p&gt;&lt;p&gt;&lt;font color=&quot;#ffff00&quot;&gt;php artisan key:generate&lt;/font&gt;&lt;br&gt;&lt;/p&gt;&lt;p&gt;creo db&lt;/p&gt;&lt;p&gt;modifico file env con impostazioni del mio db&lt;/p&gt;&lt;p&gt;&lt;span&gt;installo i pacchetti necessari:&lt;/span&gt;&lt;/p&gt;&lt;p&gt;&lt;span&gt;installo pacchetti node: &lt;/span&gt;&lt;font color=&quot;#ffff00&quot;&gt;npm install&lt;/font&gt;&lt;br&gt;&lt;/p&gt;&lt;p&gt;&lt;font color=&quot;#ffff00&quot;&gt;npm run dev / watch&lt;/font&gt;&lt;/p&gt;&lt;p&gt;se ci sono già migration o seeder li lancio&lt;font color=&quot;#ffff00&quot;&gt;&lt;br&gt;&lt;/font&gt;&lt;/p&gt;&lt;p&gt;&lt;span&gt;lancio &lt;/span&gt;&lt;font color=&quot;#ffff00&quot;&gt;php artisan serve&lt;/font&gt;&lt;span&gt; e verifico che tutto funzioni&lt;/span&gt;&lt;br&gt;&lt;/p&gt;&lt;p&gt;&lt;span&gt;creo eventuale branch su git&lt;/span&gt;&lt;br&gt;&lt;/p&gt;&lt;p&gt;&lt;font color=&quot;#ffff00&quot;&gt;&lt;br&gt;&lt;/font&gt;&lt;/p&gt;" style="text;html=1;strokeColor=#FFFFFF;fillColor=none;spacing=5;spacingTop=-20;whiteSpace=wrap;overflow=hidden;rounded=0;fontSize=12;fontColor=#FFFFFF;" parent="1" vertex="1">
                    <mxGeometry x="450" y="130" width="330" height="340" as="geometry"/>
                </mxCell>
                <mxCell id="23" style="edgeStyle=none;html=1;exitX=0.5;exitY=1;exitDx=0;exitDy=0;entryX=0.5;entryY=0;entryDx=0;entryDy=0;fontSize=10;fontColor=#FFFF00;" parent="1" source="12" target="22" edge="1">
                    <mxGeometry relative="1" as="geometry"/>
                </mxCell>
                <mxCell id="12" value="&lt;h1&gt;&lt;font style=&quot;font-size: 16px ; line-height: 1&quot;&gt;Definisco le mie entità:&lt;/font&gt;&lt;/h1&gt;&lt;div&gt;&lt;font style=&quot;font-size: 16px ; line-height: 1&quot;&gt;&lt;u&gt;Creo Model e Migration&lt;/u&gt;&lt;/font&gt;&lt;/div&gt;&lt;p&gt;&lt;font style=&quot;font-size: 12px&quot;&gt;Per ogni entità creo il relativo model e la migration es. entità post:&lt;/font&gt;&lt;/p&gt;&lt;p&gt;&lt;font style=&quot;font-size: 12px&quot; color=&quot;#ffff00&quot;&gt;php artisan make:model Post&lt;/font&gt;&lt;/p&gt;&lt;p&gt;&lt;font style=&quot;font-size: 12px&quot; color=&quot;#ffff00&quot;&gt;php artisan make:migration create_posts_table&lt;/font&gt;&lt;/p&gt;&lt;p&gt;&lt;font style=&quot;font-size: 12px&quot;&gt;edito le migration create e i model e poi lancio le migration&lt;/font&gt;&lt;/p&gt;&lt;p&gt;&lt;font style=&quot;font-size: 12px&quot; color=&quot;#ffff00&quot;&gt;php artisan migrate&amp;nbsp; &lt;/font&gt;&lt;font style=&quot;font-size: 12px&quot;&gt;(&lt;/font&gt;&lt;span style=&quot;font-size: 12px&quot;&gt;verifico che le tabelle siano state create correttamente sul db)&lt;/span&gt;&lt;/p&gt;" style="text;html=1;strokeColor=default;fillColor=none;spacing=5;spacingTop=-20;whiteSpace=wrap;overflow=hidden;rounded=0;fontSize=16;fontColor=#FFFFFF;container=1;" parent="1" vertex="1">
                    <mxGeometry x="40" y="640" width="480" height="280" as="geometry"/>
                </mxCell>
                <mxCell id="15" value="" style="shape=curlyBracket;whiteSpace=wrap;html=1;rounded=1;flipH=1;fontSize=12;fontColor=#FFFFFF;strokeColor=default;" parent="1" vertex="1">
                    <mxGeometry x="300" y="780" width="30" height="50" as="geometry"/>
                </mxCell>
                <mxCell id="16" value="&lt;span style=&quot;text-align: left&quot;&gt;php artisan make:model Post -m&lt;/span&gt;" style="text;html=1;strokeColor=none;fillColor=none;align=center;verticalAlign=middle;whiteSpace=wrap;rounded=0;fontSize=12;fontColor=#FFFF00;" parent="1" vertex="1">
                    <mxGeometry x="310" y="790" width="220" height="30" as="geometry"/>
                </mxCell>
                <mxCell id="17" value="&lt;div style=&quot;text-align: left ; font-size: 10px&quot;&gt;&lt;br&gt;&lt;/div&gt;&lt;div style=&quot;text-align: left ; font-size: 10px&quot;&gt;&lt;b&gt;Esempio metodo up di una migration:&lt;/b&gt;&lt;/div&gt;&lt;div style=&quot;text-align: left ; font-size: 10px&quot;&gt;public function up()&lt;span style=&quot;font-size: 10px&quot;&gt;&amp;nbsp;{&lt;/span&gt;&lt;/div&gt;&lt;div style=&quot;text-align: left ; font-size: 10px&quot;&gt;&amp;nbsp; &amp;nbsp; &amp;nbsp; &amp;nbsp; Schema::create('flights', function (Blueprint $table) {&lt;/div&gt;&lt;div style=&quot;text-align: left ; font-size: 10px&quot;&gt;&amp;nbsp; &amp;nbsp; &amp;nbsp; &amp;nbsp; &amp;nbsp; &amp;nbsp; $table-&amp;gt;id();&lt;/div&gt;&lt;div style=&quot;text-align: left ; font-size: 10px&quot;&gt;&amp;nbsp; &amp;nbsp; &amp;nbsp; &amp;nbsp; &amp;nbsp; &amp;nbsp; $table-&amp;gt;string('name');&lt;/div&gt;&lt;div style=&quot;text-align: left ; font-size: 10px&quot;&gt;&amp;nbsp; &amp;nbsp; &amp;nbsp; &amp;nbsp; &amp;nbsp; &amp;nbsp; $table-&amp;gt;string('airline');&lt;/div&gt;&lt;div style=&quot;text-align: left ; font-size: 10px&quot;&gt;&amp;nbsp; &amp;nbsp; &amp;nbsp; &amp;nbsp; &amp;nbsp; &amp;nbsp; $table-&amp;gt;timestamps();&lt;/div&gt;&lt;div style=&quot;text-align: left ; font-size: 10px&quot;&gt;&amp;nbsp; &amp;nbsp; &amp;nbsp; &amp;nbsp; });&lt;/div&gt;&lt;div style=&quot;text-align: left ; font-size: 10px&quot;&gt;&amp;nbsp; &amp;nbsp; }&lt;/div&gt;" style="text;html=1;strokeColor=#B09500;fillColor=#e3c800;align=center;verticalAlign=middle;whiteSpace=wrap;rounded=0;fontSize=10;fontColor=#000000;" parent="1" vertex="1">
                    <mxGeometry x="540" y="640" width="260" height="120" as="geometry"/>
                </mxCell>
                <mxCell id="YnNii3DhfhroFcoP4JHG-26" style="edgeStyle=none;html=1;exitX=0.5;exitY=1;exitDx=0;exitDy=0;entryX=0.5;entryY=0;entryDx=0;entryDy=0;fontFamily=Helvetica;fontSize=10;fontColor=#FFFFFF;" parent="1" source="22" target="YnNii3DhfhroFcoP4JHG-25" edge="1">
                    <mxGeometry relative="1" as="geometry"/>
                </mxCell>
                <mxCell id="22" value="&lt;h1&gt;&lt;font style=&quot;font-size: 16px&quot;&gt;Popolo il DB&lt;/font&gt;&lt;/h1&gt;&lt;p&gt;Posso popolare il mio db manualmente o con dei seeder:&lt;/p&gt;&lt;p&gt;&lt;font color=&quot;#ffff00&quot; style=&quot;font-size: 12px&quot;&gt;php artisan make:seeder PostSeeder&amp;nbsp;&lt;/font&gt; &amp;nbsp; (esempio per tabella Posts)&lt;/p&gt;&lt;p&gt;completo il seeder creato&lt;/p&gt;&lt;p&gt;lancio il seeder:&amp;nbsp;&lt;font color=&quot;#ffff00&quot;&gt;&lt;span style=&quot;font-size: 0.8rem ; word-spacing: normal&quot;&gt;php artisan db&lt;/span&gt;&lt;span class=&quot;token punctuation&quot; style=&quot;font-size: 0.8rem ; word-spacing: normal ; box-sizing: border-box ; border-width: 0px ; border-style: solid ; border-color: rgb(231 , 232 , 242)&quot;&gt;:&lt;/span&gt;&lt;span style=&quot;font-size: 0.8rem ; word-spacing: normal&quot;&gt;seed &lt;/span&gt;&lt;span class=&quot;token operator&quot; style=&quot;font-size: 0.8rem ; word-spacing: normal ; box-sizing: border-box ; border-width: 0px ; border-style: solid ; border-color: rgb(231 , 232 , 242)&quot;&gt;--&lt;/span&gt;&lt;span class=&quot;token keyword&quot; style=&quot;font-size: 0.8rem ; word-spacing: normal ; box-sizing: border-box ; border-width: 0px ; border-style: solid ; border-color: rgb(231 , 232 , 242)&quot;&gt;class&lt;/span&gt;&lt;span class=&quot;token operator&quot; style=&quot;font-size: 0.8rem ; word-spacing: normal ; box-sizing: border-box ; border-width: 0px ; border-style: solid ; border-color: rgb(231 , 232 , 242)&quot;&gt;=&lt;/span&gt;&lt;span style=&quot;font-size: 0.8rem ; word-spacing: normal&quot;&gt;PostSeeder&lt;/span&gt;&lt;/font&gt;&lt;/p&gt;&lt;p&gt;&lt;span style=&quot;font-size: 0.8rem ; word-spacing: normal&quot;&gt;verifico che dati siano stati creati correttamente sul db&lt;/span&gt;&lt;/p&gt;&lt;font color=&quot;#ffff00&quot;&gt;&lt;span style=&quot;font-size: 0px&quot;&gt;%3CmxGraphModel%3E%3Croot%3E%3CmxCell%20id%3D%220%22%2F%3E%3CmxCell%20id%3D%221%22%20parent%3D%220%22%2F%3E%3CmxCell%20id%3D%222%22%20value%3D%22%26lt%3Bh1%26gt%3B%26lt%3Bfont%20style%3D%26quot%3Bfont-size%3A%2016px%26quot%3B%26gt%3BSe%20clono%20repo%26lt%3B%2Ffont%26gt%3B%26lt%3B%2Fh1%26gt%3B%26lt%3Bp%26gt%3B%26lt%3Bspan%26gt%3Bapro%20vscode%20e%20clono%20repo%26lt%3B%2Fspan%26gt%3B%26lt%3Bbr%26gt%3B%26lt%3B%2Fp%26gt%3B%26lt%3Bp%26gt%3Bcreo%20file%20env%20e%20genero%20la%20key%3A%26lt%3Bspan%26gt%3B%26lt%3Bbr%26gt%3B%26lt%3B%2Fspan%26gt%3B%26lt%3B%2Fp%26gt%3B%26lt%3Bp%26gt%3B%26lt%3Bfont%20color%3D%26quot%3B%23ffff00%26quot%3B%26gt%3Bphp%20artisan%20key%3Agenerate%26lt%3B%2Ffont%26gt%3B%26lt%3Bbr%26gt%3B%26lt%3B%2Fp%26gt%3B%26lt%3Bp%26gt%3Bcreo%20db%26lt%3B%2Fp%26gt%3B%26lt%3Bp%26gt%3Bmodifico%20file%20env%20con%20impostazioni%20mie%26lt%3B%2Fp%26gt%3B%26lt%3Bp%26gt%3B%26lt%3Bspan%26gt%3Binstallo%20i%20pacchetti%20necessari%3A%26lt%3B%2Fspan%26gt%3B%26lt%3B%2Fp%26gt%3B%26lt%3Bp%26gt%3B%26lt%3Bspan%26gt%3B%26lt%3Bfont%20color%3D%26quot%3B%23ffff00%26quot%3B%26gt%3Bcomposer%20install%26lt%3B%2Ffont%26gt%3B%26lt%3B%2Fspan%26gt%3B%26lt%3B%2Fp%26gt%3B%26lt%3Bp%26gt%3B%26lt%3Bspan%26gt%3Binstallo%20pacchetti%20node%3A%20%26lt%3B%2Fspan%26gt%3B%26lt%3Bfont%20color%3D%26quot%3B%23ffff00%26quot%3B%26gt%3Bnpm%20install%26lt%3B%2Ffont%26gt%3B%26lt%3Bbr%26gt%3B%26lt%3B%2Fp%26gt%3B%26lt%3Bp%26gt%3B%26lt%3Bspan%26gt%3Blancio%20%26lt%3B%2Fspan%26gt%3B%26lt%3Bfont%20color%3D%26quot%3B%23ffff00%26quot%3B%26gt%3Bphp%20artisan%20serve%26lt%3B%2Ffont%26gt%3B%26lt%3Bspan%26gt%3B%20e%20verifico%20che%20tutto%20funzioni%26lt%3B%2Fspan%26gt%3B%26lt%3Bbr%26gt%3B%26lt%3B%2Fp%26gt%3B%26lt%3Bp%26gt%3Bcreo%20eventuale%20branch%20su%20git%26lt%3B%2Fp%26gt%3B%26lt%3Bp%26gt%3B%26lt%3Bfont%20color%3D%26quot%3B%23ffff00%26quot%3B%26gt%3B%26lt%3Bbr%26gt%3B%26lt%3B%2Ffont%26gt%3B%26lt%3B%2Fp%26gt%3B%22%20style%3D%22text%3Bhtml%3D1%3BstrokeColor%3D%23FFFFFF%3BfillColor%3Dnone%3Bspacing%3D5%3BspacingTop%3D-20%3BwhiteSpace%3Dwrap%3Boverflow%3Dhidden%3Brounded%3D0%3BfontSize%3D12%3BfontColor%3D%23FFFFFF%3B%22%20vertex%3D%221%22%20parent%3D%221%22%3E%3CmxGeometry%20x%3D%22450%22%20y%3D%22130%22%20width%3D%22330%22%20height%3D%22320%22%20as%3D%22geometry%22%2F%3E%3C%2FmxCell%3E%3C%2Froot%3E%3C%2FmxGraphModel%3E&lt;/span&gt;&lt;span style=&quot;font-size: 0px&quot;&gt;%3CmxGraphModel%3E%3Croot%3E%3CmxCell%20id%3D%220%22%2F%3E%3CmxCell%20id%3D%221%22%20parent%3D%220%22%2F%3E%3CmxCell%20id%3D%222%22%20value%3D%22%26lt%3Bh1%26gt%3B%26lt%3Bfont%20style%3D%26quot%3Bfont-size%3A%2016px%26quot%3B%26gt%3BSe%20clono%20repo%26lt%3B%2Ffont%26gt%3B%26lt%3B%2Fh1%26gt%3B%26lt%3Bp%26gt%3B%26lt%3Bspan%26gt%3Bapro%20vscode%20e%20clono%20repo%26lt%3B%2Fspan%26gt%3B%26lt%3Bbr%26gt%3B%26lt%3B%2Fp%26gt%3B%26lt%3Bp%26gt%3Bcreo%20file%20env%20e%20genero%20la%20key%3A%26lt%3Bspan%26gt%3B%26lt%3Bbr%26gt%3B%26lt%3B%2Fspan%26gt%3B%26lt%3B%2Fp%26gt%3B%26lt%3Bp%26gt%3B%26lt%3Bfont%20color%3D%26quot%3B%23ffff00%26quot%3B%26gt%3Bphp%20artisan%20key%3Agenerate%26lt%3B%2Ffont%26gt%3B%26lt%3Bbr%26gt%3B%26lt%3B%2Fp%26gt%3B%26lt%3Bp%26gt%3Bcreo%20db%26lt%3B%2Fp%26gt%3B%26lt%3Bp%26gt%3Bmodifico%20file%20env%20con%20impostazioni%20mie%26lt%3B%2Fp%26gt%3B%26lt%3Bp%26gt%3B%26lt%3Bspan%26gt%3Binstallo%20i%20pacchetti%20necessari%3A%26lt%3B%2Fspan%26gt%3B%26lt%3B%2Fp%26gt%3B%26lt%3Bp%26gt%3B%26lt%3Bspan%26gt%3B%26lt%3Bfont%20color%3D%26quot%3B%23ffff00%26quot%3B%26gt%3Bcomposer%20install%26lt%3B%2Ffont%26gt%3B%26lt%3B%2Fspan%26gt%3B%26lt%3B%2Fp%26gt%3B%26lt%3Bp%26gt%3B%26lt%3Bspan%26gt%3Binstallo%20pacchetti%20node%3A%20%26lt%3B%2Fspan%26gt%3B%26lt%3Bfont%20color%3D%26quot%3B%23ffff00%26quot%3B%26gt%3Bnpm%20install%26lt%3B%2Ffont%26gt%3B%26lt%3Bbr%26gt%3B%26lt%3B%2Fp%26gt%3B%26lt%3Bp%26gt%3B%26lt%3Bspan%26gt%3Blancio%20%26lt%3B%2Fspan%26gt%3B%26lt%3Bfont%20color%3D%26quot%3B%23ffff00%26quot%3B%26gt%3Bphp%20artisan%20serve%26lt%3B%2Ffont%26gt%3B%26lt%3Bspan%26gt%3B%20e%20verifico%20che%20tutto%20funzioni%26lt%3B%2Fspan%26gt%3B%26lt%3Bbr%26gt%3B%26lt%3B%2Fp%26gt%3B%26lt%3Bp%26gt%3Bcreo%20eventuale%20branch%20su%20git%26lt%3B%2Fp%26gt%3B%26lt%3Bp%26gt%3B%26lt%3Bfont%20color%3D%26quot%3B%23ffff00%26quot%3B%26gt%3B%26lt%3Bbr%26gt%3B%26lt%3B%2Ffont%26gt%3B%26lt%3B%2Fp%26gt%3B%22%20style%3D%22text%3Bhtml%3D1%3BstrokeColor%3D%23FFFFFF%3BfillColor%3Dnone%3Bspacing%3D5%3BspacingTop%3D-20%3BwhiteSpace%3Dwrap%3Boverflow%3Dhidden%3Brounded%3D0%3BfontSize%3D12%3BfontColor%3D%23FFFFFF%3B%22%20vertex%3D%221%22%20parent%3D%221%22%3E%3CmxGeometry%20x%3D%22450%22%20y%3D%22130%22%20width%3D%22330%22%20height%3D%22320%22%20as%3D%22geometry%22%2F%3E%3C%2FmxCell%3E%3C%2Froot%3E%3C%2FmxGraphModel%3E&lt;/span&gt;&lt;/font&gt;&lt;p&gt;&lt;font color=&quot;#ffff00&quot;&gt;&amp;nbsp;&lt;/font&gt;&lt;/p&gt;" style="text;html=1;strokeColor=#FFFFFF;fillColor=none;spacing=5;spacingTop=-20;whiteSpace=wrap;overflow=hidden;rounded=0;fontSize=12;fontColor=#FFFFFF;" parent="1" vertex="1">
                    <mxGeometry x="40" y="960" width="480" height="180" as="geometry"/>
                </mxCell>
                <mxCell id="24" value="&lt;b&gt;Esempio metodo run di un seeder:&lt;/b&gt;&lt;div style=&quot;font-size: 10px&quot;&gt;public function run(Faker $faker)&lt;/div&gt;&lt;div style=&quot;font-size: 10px&quot;&gt;&amp;nbsp; &amp;nbsp; {&lt;/div&gt;&lt;div style=&quot;font-size: 10px&quot;&gt;&amp;nbsp; &amp;nbsp; &amp;nbsp; &amp;nbsp;&amp;nbsp;&lt;span&gt;&amp;nbsp; &amp;nbsp; for ($i = 0; $i &amp;lt; 200; $i++) {&lt;/span&gt;&lt;/div&gt;&lt;div style=&quot;font-size: 10px&quot;&gt;&amp;nbsp; &amp;nbsp; &amp;nbsp; &amp;nbsp; &amp;nbsp; &amp;nbsp; $newPost = new Post();&lt;/div&gt;&lt;div style=&quot;font-size: 10px&quot;&gt;&amp;nbsp; &amp;nbsp; &amp;nbsp; &amp;nbsp; &amp;nbsp; &amp;nbsp; $newPost-&amp;gt;title = $faker-&amp;gt;sentence();&lt;/div&gt;&lt;div style=&quot;font-size: 10px&quot;&gt;&amp;nbsp; &amp;nbsp; &amp;nbsp; &amp;nbsp; &amp;nbsp; &amp;nbsp; $newPost-&amp;gt;content = $faker-&amp;gt;paragraph(50);&lt;/div&gt;&lt;div style=&quot;font-size: 10px&quot;&gt;&amp;nbsp; &amp;nbsp; &amp;nbsp; &amp;nbsp; &amp;nbsp; &amp;nbsp; $newPost-&amp;gt;published = $faker-&amp;gt;boolean();&lt;span&gt;&amp;nbsp; &amp;nbsp; &amp;nbsp; &amp;nbsp; &amp;nbsp; &amp;nbsp;&amp;nbsp;&lt;/span&gt;&lt;/div&gt;&lt;div style=&quot;font-size: 10px&quot;&gt;&amp;nbsp; &amp;nbsp; &amp;nbsp; &amp;nbsp; &amp;nbsp; &amp;nbsp; $newPost-&amp;gt;imageSrc = $faker-&amp;gt;imageUrl();&lt;/div&gt;&lt;div style=&quot;font-size: 10px&quot;&gt;&amp;nbsp; &amp;nbsp; &amp;nbsp; &amp;nbsp; &amp;nbsp; &amp;nbsp; $newPost-&amp;gt;save();&lt;/div&gt;&lt;div style=&quot;font-size: 10px&quot;&gt;&amp;nbsp; &amp;nbsp; &amp;nbsp; &amp;nbsp; }&lt;/div&gt;&lt;div style=&quot;font-size: 10px&quot;&gt;&amp;nbsp; &amp;nbsp; }&lt;/div&gt;" style="text;html=1;strokeColor=#B09500;fillColor=#e3c800;align=left;verticalAlign=middle;whiteSpace=wrap;rounded=0;fontFamily=Helvetica;fontSize=10;fontColor=#000000;" parent="1" vertex="1">
                    <mxGeometry x="540" y="960" width="260" height="180" as="geometry"/>
                </mxCell>
                <mxCell id="YnNii3DhfhroFcoP4JHG-28" style="edgeStyle=none;html=1;exitX=0.5;exitY=1;exitDx=0;exitDy=0;entryX=0.5;entryY=0;entryDx=0;entryDy=0;fontFamily=Helvetica;fontSize=10;fontColor=#FFFF00;" parent="1" source="YnNii3DhfhroFcoP4JHG-25" target="YnNii3DhfhroFcoP4JHG-27" edge="1">
                    <mxGeometry relative="1" as="geometry"/>
                </mxCell>
                <mxCell id="YnNii3DhfhroFcoP4JHG-25" value="&lt;h1&gt;&lt;font style=&quot;font-size: 16px&quot;&gt;Creo i controller:&lt;/font&gt;&lt;/h1&gt;&lt;p&gt;Creo i controller per le mie entità facendo attenzione ad eventuali &lt;b&gt;&lt;u&gt;namespace&lt;/u&gt;&lt;/b&gt;&lt;/p&gt;&lt;p&gt;&lt;font color=&quot;#ffff00&quot; style=&quot;font-size: 12px&quot;&gt;php artisan make:controller PostController&amp;nbsp;&lt;/font&gt; &amp;nbsp; (controller semplice)&lt;/p&gt;&lt;p&gt;&lt;font color=&quot;#ffff00&quot;&gt;php artisan make:controller PostController&amp;nbsp; --resource&lt;/font&gt;&amp;nbsp;&amp;nbsp; (con resource)&lt;br&gt;&lt;/p&gt;&lt;p&gt;&lt;font color=&quot;#ffff00&quot;&gt;php artisan make:controller Admin/PostController&amp;nbsp;--resource&lt;/font&gt; (controller con namespace)&lt;br&gt;&lt;/p&gt;&lt;p&gt;&lt;span style=&quot;font-size: 0.8rem ; word-spacing: normal&quot;&gt;completo almeno il metodo index di ogni controller in modo che ritorni almeno un template blade&lt;/span&gt;&lt;/p&gt;&lt;font color=&quot;#ffff00&quot;&gt;&lt;span style=&quot;font-size: 0px&quot;&gt;%3CmxGraphModel%3E%3Croot%3E%3CmxCell%20id%3D%220%22%2F%3E%3CmxCell%20id%3D%221%22%20parent%3D%220%22%2F%3E%3CmxCell%20id%3D%222%22%20value%3D%22%26lt%3Bh1%26gt%3B%26lt%3Bfont%20style%3D%26quot%3Bfont-size%3A%2016px%26quot%3B%26gt%3BSe%20clono%20repo%26lt%3B%2Ffont%26gt%3B%26lt%3B%2Fh1%26gt%3B%26lt%3Bp%26gt%3B%26lt%3Bspan%26gt%3Bapro%20vscode%20e%20clono%20repo%26lt%3B%2Fspan%26gt%3B%26lt%3Bbr%26gt%3B%26lt%3B%2Fp%26gt%3B%26lt%3Bp%26gt%3Bcreo%20file%20env%20e%20genero%20la%20key%3A%26lt%3Bspan%26gt%3B%26lt%3Bbr%26gt%3B%26lt%3B%2Fspan%26gt%3B%26lt%3B%2Fp%26gt%3B%26lt%3Bp%26gt%3B%26lt%3Bfont%20color%3D%26quot%3B%23ffff00%26quot%3B%26gt%3Bphp%20artisan%20key%3Agenerate%26lt%3B%2Ffont%26gt%3B%26lt%3Bbr%26gt%3B%26lt%3B%2Fp%26gt%3B%26lt%3Bp%26gt%3Bcreo%20db%26lt%3B%2Fp%26gt%3B%26lt%3Bp%26gt%3Bmodifico%20file%20env%20con%20impostazioni%20mie%26lt%3B%2Fp%26gt%3B%26lt%3Bp%26gt%3B%26lt%3Bspan%26gt%3Binstallo%20i%20pacchetti%20necessari%3A%26lt%3B%2Fspan%26gt%3B%26lt%3B%2Fp%26gt%3B%26lt%3Bp%26gt%3B%26lt%3Bspan%26gt%3B%26lt%3Bfont%20color%3D%26quot%3B%23ffff00%26quot%3B%26gt%3Bcomposer%20install%26lt%3B%2Ffont%26gt%3B%26lt%3B%2Fspan%26gt%3B%26lt%3B%2Fp%26gt%3B%26lt%3Bp%26gt%3B%26lt%3Bspan%26gt%3Binstallo%20pacchetti%20node%3A%20%26lt%3B%2Fspan%26gt%3B%26lt%3Bfont%20color%3D%26quot%3B%23ffff00%26quot%3B%26gt%3Bnpm%20install%26lt%3B%2Ffont%26gt%3B%26lt%3Bbr%26gt%3B%26lt%3B%2Fp%26gt%3B%26lt%3Bp%26gt%3B%26lt%3Bspan%26gt%3Blancio%20%26lt%3B%2Fspan%26gt%3B%26lt%3Bfont%20color%3D%26quot%3B%23ffff00%26quot%3B%26gt%3Bphp%20artisan%20serve%26lt%3B%2Ffont%26gt%3B%26lt%3Bspan%26gt%3B%20e%20verifico%20che%20tutto%20funzioni%26lt%3B%2Fspan%26gt%3B%26lt%3Bbr%26gt%3B%26lt%3B%2Fp%26gt%3B%26lt%3Bp%26gt%3Bcreo%20eventuale%20branch%20su%20git%26lt%3B%2Fp%26gt%3B%26lt%3Bp%26gt%3B%26lt%3Bfont%20color%3D%26quot%3B%23ffff00%26quot%3B%26gt%3B%26lt%3Bbr%26gt%3B%26lt%3B%2Ffont%26gt%3B%26lt%3B%2Fp%26gt%3B%22%20style%3D%22text%3Bhtml%3D1%3BstrokeColor%3D%23FFFFFF%3BfillColor%3Dnone%3Bspacing%3D5%3BspacingTop%3D-20%3BwhiteSpace%3Dwrap%3Boverflow%3Dhidden%3Brounded%3D0%3BfontSize%3D12%3BfontColor%3D%23FFFFFF%3B%22%20vertex%3D%221%22%20parent%3D%221%22%3E%3CmxGeometry%20x%3D%22450%22%20y%3D%22130%22%20width%3D%22330%22%20height%3D%22320%22%20as%3D%22geometry%22%2F%3E%3C%2FmxCell%3E%3C%2Froot%3E%3C%2FmxGraphModel%3E&lt;/span&gt;&lt;span style=&quot;font-size: 0px&quot;&gt;%3CmxGraphModel%3E%3Croot%3E%3CmxCell%20id%3D%220%22%2F%3E%3CmxCell%20id%3D%221%22%20parent%3D%220%22%2F%3E%3CmxCell%20id%3D%222%22%20value%3D%22%26lt%3Bh1%26gt%3B%26lt%3Bfont%20style%3D%26quot%3Bfont-size%3A%2016px%26quot%3B%26gt%3BSe%20clono%20repo%26lt%3B%2Ffont%26gt%3B%26lt%3B%2Fh1%26gt%3B%26lt%3Bp%26gt%3B%26lt%3Bspan%26gt%3Bapro%20vscode%20e%20clono%20repo%26lt%3B%2Fspan%26gt%3B%26lt%3Bbr%26gt%3B%26lt%3B%2Fp%26gt%3B%26lt%3Bp%26gt%3Bcreo%20file%20env%20e%20genero%20la%20key%3A%26lt%3Bspan%26gt%3B%26lt%3Bbr%26gt%3B%26lt%3B%2Fspan%26gt%3B%26lt%3B%2Fp%26gt%3B%26lt%3Bp%26gt%3B%26lt%3Bfont%20color%3D%26quot%3B%23ffff00%26quot%3B%26gt%3Bphp%20artisan%20key%3Agenerate%26lt%3B%2Ffont%26gt%3B%26lt%3Bbr%26gt%3B%26lt%3B%2Fp%26gt%3B%26lt%3Bp%26gt%3Bcreo%20db%26lt%3B%2Fp%26gt%3B%26lt%3Bp%26gt%3Bmodifico%20file%20env%20con%20impostazioni%20mie%26lt%3B%2Fp%26gt%3B%26lt%3Bp%26gt%3B%26lt%3Bspan%26gt%3Binstallo%20i%20pacchetti%20necessari%3A%26lt%3B%2Fspan%26gt%3B%26lt%3B%2Fp%26gt%3B%26lt%3Bp%26gt%3B%26lt%3Bspan%26gt%3B%26lt%3Bfont%20color%3D%26quot%3B%23ffff00%26quot%3B%26gt%3Bcomposer%20install%26lt%3B%2Ffont%26gt%3B%26lt%3B%2Fspan%26gt%3B%26lt%3B%2Fp%26gt%3B%26lt%3Bp%26gt%3B%26lt%3Bspan%26gt%3Binstallo%20pacchetti%20node%3A%20%26lt%3B%2Fspan%26gt%3B%26lt%3Bfont%20color%3D%26quot%3B%23ffff00%26quot%3B%26gt%3Bnpm%20install%26lt%3B%2Ffont%26gt%3B%26lt%3Bbr%26gt%3B%26lt%3B%2Fp%26gt%3B%26lt%3Bp%26gt%3B%26lt%3Bspan%26gt%3Blancio%20%26lt%3B%2Fspan%26gt%3B%26lt%3Bfont%20color%3D%26quot%3B%23ffff00%26quot%3B%26gt%3Bphp%20artisan%20serve%26lt%3B%2Ffont%26gt%3B%26lt%3Bspan%26gt%3B%20e%20verifico%20che%20tutto%20funzioni%26lt%3B%2Fspan%26gt%3B%26lt%3Bbr%26gt%3B%26lt%3B%2Fp%26gt%3B%26lt%3Bp%26gt%3Bcreo%20eventuale%20branch%20su%20git%26lt%3B%2Fp%26gt%3B%26lt%3Bp%26gt%3B%26lt%3Bfont%20color%3D%26quot%3B%23ffff00%26quot%3B%26gt%3B%26lt%3Bbr%26gt%3B%26lt%3B%2Ffont%26gt%3B%26lt%3B%2Fp%26gt%3B%22%20style%3D%22text%3Bhtml%3D1%3BstrokeColor%3D%23FFFFFF%3BfillColor%3Dnone%3Bspacing%3D5%3BspacingTop%3D-20%3BwhiteSpace%3Dwrap%3Boverflow%3Dhidden%3Brounded%3D0%3BfontSize%3D12%3BfontColor%3D%23FFFFFF%3B%22%20vertex%3D%221%22%20parent%3D%221%22%3E%3CmxGeometry%20x%3D%22450%22%20y%3D%22130%22%20width%3D%22330%22%20height%3D%22320%22%20as%3D%22geometry%22%2F%3E%3C%2FmxCell%3E%3C%2Froot%3E%3C%2FmxGraphModel%3E&lt;/span&gt;&lt;/font&gt;&lt;p&gt;&lt;font color=&quot;#ffff00&quot;&gt;&amp;nbsp;&lt;/font&gt;&lt;/p&gt;" style="text;html=1;strokeColor=#FFFFFF;fillColor=none;spacing=5;spacingTop=-20;whiteSpace=wrap;overflow=hidden;rounded=0;fontSize=12;fontColor=#FFFFFF;" parent="1" vertex="1">
                    <mxGeometry x="40" y="1200" width="480" height="190" as="geometry"/>
                </mxCell>
                <mxCell id="YnNii3DhfhroFcoP4JHG-30" style="edgeStyle=none;html=1;exitX=0.5;exitY=1;exitDx=0;exitDy=0;entryX=0.5;entryY=0;entryDx=0;entryDy=0;fontFamily=Helvetica;fontSize=10;fontColor=#FFFF00;" parent="1" source="YnNii3DhfhroFcoP4JHG-27" target="YnNii3DhfhroFcoP4JHG-29" edge="1">
                    <mxGeometry relative="1" as="geometry"/>
                </mxCell>
                <mxCell id="YnNii3DhfhroFcoP4JHG-27" value="&lt;h1&gt;&lt;font style=&quot;font-size: 16px&quot;&gt;Creo i necessari template blade:&lt;/font&gt;&lt;/h1&gt;&lt;p&gt;Creo i necessari template seguendo dove possibile la logica laravel (index,,show, ecc.) ragguppandoli nelle relative cartelle&amp;nbsp; rispettando i namespace e le entità (es. admin/posts/index.blade.php)&lt;/p&gt;&lt;font color=&quot;#ffff00&quot;&gt;&lt;span style=&quot;font-size: 0px&quot;&gt;%3CmxGraphModel%3E%3Croot%3E%3CmxCell%20id%3D%220%22%2F%3E%3CmxCell%20id%3D%221%22%20parent%3D%220%22%2F%3E%3CmxCell%20id%3D%222%22%20value%3D%22%26lt%3Bh1%26gt%3B%26lt%3Bfont%20style%3D%26quot%3Bfont-size%3A%2016px%26quot%3B%26gt%3BSe%20clono%20repo%26lt%3B%2Ffont%26gt%3B%26lt%3B%2Fh1%26gt%3B%26lt%3Bp%26gt%3B%26lt%3Bspan%26gt%3Bapro%20vscode%20e%20clono%20repo%26lt%3B%2Fspan%26gt%3B%26lt%3Bbr%26gt%3B%26lt%3B%2Fp%26gt%3B%26lt%3Bp%26gt%3Bcreo%20file%20env%20e%20genero%20la%20key%3A%26lt%3Bspan%26gt%3B%26lt%3Bbr%26gt%3B%26lt%3B%2Fspan%26gt%3B%26lt%3B%2Fp%26gt%3B%26lt%3Bp%26gt%3B%26lt%3Bfont%20color%3D%26quot%3B%23ffff00%26quot%3B%26gt%3Bphp%20artisan%20key%3Agenerate%26lt%3B%2Ffont%26gt%3B%26lt%3Bbr%26gt%3B%26lt%3B%2Fp%26gt%3B%26lt%3Bp%26gt%3Bcreo%20db%26lt%3B%2Fp%26gt%3B%26lt%3Bp%26gt%3Bmodifico%20file%20env%20con%20impostazioni%20mie%26lt%3B%2Fp%26gt%3B%26lt%3Bp%26gt%3B%26lt%3Bspan%26gt%3Binstallo%20i%20pacchetti%20necessari%3A%26lt%3B%2Fspan%26gt%3B%26lt%3B%2Fp%26gt%3B%26lt%3Bp%26gt%3B%26lt%3Bspan%26gt%3B%26lt%3Bfont%20color%3D%26quot%3B%23ffff00%26quot%3B%26gt%3Bcomposer%20install%26lt%3B%2Ffont%26gt%3B%26lt%3B%2Fspan%26gt%3B%26lt%3B%2Fp%26gt%3B%26lt%3Bp%26gt%3B%26lt%3Bspan%26gt%3Binstallo%20pacchetti%20node%3A%20%26lt%3B%2Fspan%26gt%3B%26lt%3Bfont%20color%3D%26quot%3B%23ffff00%26quot%3B%26gt%3Bnpm%20install%26lt%3B%2Ffont%26gt%3B%26lt%3Bbr%26gt%3B%26lt%3B%2Fp%26gt%3B%26lt%3Bp%26gt%3B%26lt%3Bspan%26gt%3Blancio%20%26lt%3B%2Fspan%26gt%3B%26lt%3Bfont%20color%3D%26quot%3B%23ffff00%26quot%3B%26gt%3Bphp%20artisan%20serve%26lt%3B%2Ffont%26gt%3B%26lt%3Bspan%26gt%3B%20e%20verifico%20che%20tutto%20funzioni%26lt%3B%2Fspan%26gt%3B%26lt%3Bbr%26gt%3B%26lt%3B%2Fp%26gt%3B%26lt%3Bp%26gt%3Bcreo%20eventuale%20branch%20su%20git%26lt%3B%2Fp%26gt%3B%26lt%3Bp%26gt%3B%26lt%3Bfont%20color%3D%26quot%3B%23ffff00%26quot%3B%26gt%3B%26lt%3Bbr%26gt%3B%26lt%3B%2Ffont%26gt%3B%26lt%3B%2Fp%26gt%3B%22%20style%3D%22text%3Bhtml%3D1%3BstrokeColor%3D%23FFFFFF%3BfillColor%3Dnone%3Bspacing%3D5%3BspacingTop%3D-20%3BwhiteSpace%3Dwrap%3Boverflow%3Dhidden%3Brounded%3D0%3BfontSize%3D12%3BfontColor%3D%23FFFFFF%3B%22%20vertex%3D%221%22%20parent%3D%221%22%3E%3CmxGeometry%20x%3D%22450%22%20y%3D%22130%22%20width%3D%22330%22%20height%3D%22320%22%20as%3D%22geometry%22%2F%3E%3C%2FmxCell%3E%3C%2Froot%3E%3C%2FmxGraphModel%3E&lt;/span&gt;&lt;span style=&quot;font-size: 0px&quot;&gt;%3CmxGraphModel%3E%3Croot%3E%3CmxCell%20id%3D%220%22%2F%3E%3CmxCell%20id%3D%221%22%20parent%3D%220%22%2F%3E%3CmxCell%20id%3D%222%22%20value%3D%22%26lt%3Bh1%26gt%3B%26lt%3Bfont%20style%3D%26quot%3Bfont-size%3A%2016px%26quot%3B%26gt%3BSe%20clono%20repo%26lt%3B%2Ffont%26gt%3B%26lt%3B%2Fh1%26gt%3B%26lt%3Bp%26gt%3B%26lt%3Bspan%26gt%3Bapro%20vscode%20e%20clono%20repo%26lt%3B%2Fspan%26gt%3B%26lt%3Bbr%26gt%3B%26lt%3B%2Fp%26gt%3B%26lt%3Bp%26gt%3Bcreo%20file%20env%20e%20genero%20la%20key%3A%26lt%3Bspan%26gt%3B%26lt%3Bbr%26gt%3B%26lt%3B%2Fspan%26gt%3B%26lt%3B%2Fp%26gt%3B%26lt%3Bp%26gt%3B%26lt%3Bfont%20color%3D%26quot%3B%23ffff00%26quot%3B%26gt%3Bphp%20artisan%20key%3Agenerate%26lt%3B%2Ffont%26gt%3B%26lt%3Bbr%26gt%3B%26lt%3B%2Fp%26gt%3B%26lt%3Bp%26gt%3Bcreo%20db%26lt%3B%2Fp%26gt%3B%26lt%3Bp%26gt%3Bmodifico%20file%20env%20con%20impostazioni%20mie%26lt%3B%2Fp%26gt%3B%26lt%3Bp%26gt%3B%26lt%3Bspan%26gt%3Binstallo%20i%20pacchetti%20necessari%3A%26lt%3B%2Fspan%26gt%3B%26lt%3B%2Fp%26gt%3B%26lt%3Bp%26gt%3B%26lt%3Bspan%26gt%3B%26lt%3Bfont%20color%3D%26quot%3B%23ffff00%26quot%3B%26gt%3Bcomposer%20install%26lt%3B%2Ffont%26gt%3B%26lt%3B%2Fspan%26gt%3B%26lt%3B%2Fp%26gt%3B%26lt%3Bp%26gt%3B%26lt%3Bspan%26gt%3Binstallo%20pacchetti%20node%3A%20%26lt%3B%2Fspan%26gt%3B%26lt%3Bfont%20color%3D%26quot%3B%23ffff00%26quot%3B%26gt%3Bnpm%20install%26lt%3B%2Ffont%26gt%3B%26lt%3Bbr%26gt%3B%26lt%3B%2Fp%26gt%3B%26lt%3Bp%26gt%3B%26lt%3Bspan%26gt%3Blancio%20%26lt%3B%2Fspan%26gt%3B%26lt%3Bfont%20color%3D%26quot%3B%23ffff00%26quot%3B%26gt%3Bphp%20artisan%20serve%26lt%3B%2Ffont%26gt%3B%26lt%3Bspan%26gt%3B%20e%20verifico%20che%20tutto%20funzioni%26lt%3B%2Fspan%26gt%3B%26lt%3Bbr%26gt%3B%26lt%3B%2Fp%26gt%3B%26lt%3Bp%26gt%3Bcreo%20eventuale%20branch%20su%20git%26lt%3B%2Fp%26gt%3B%26lt%3Bp%26gt%3B%26lt%3Bfont%20color%3D%26quot%3B%23ffff00%26quot%3B%26gt%3B%26lt%3Bbr%26gt%3B%26lt%3B%2Ffont%26gt%3B%26lt%3B%2Fp%26gt%3B%22%20style%3D%22text%3Bhtml%3D1%3BstrokeColor%3D%23FFFFFF%3BfillColor%3Dnone%3Bspacing%3D5%3BspacingTop%3D-20%3BwhiteSpace%3Dwrap%3Boverflow%3Dhidden%3Brounded%3D0%3BfontSize%3D12%3BfontColor%3D%23FFFFFF%3B%22%20vertex%3D%221%22%20parent%3D%221%22%3E%3CmxGeometry%20x%3D%22450%22%20y%3D%22130%22%20width%3D%22330%22%20height%3D%22320%22%20as%3D%22geometry%22%2F%3E%3C%2FmxCell%3E%3C%2Froot%3E%3C%2FmxGraphModel%3E&lt;/span&gt;&lt;/font&gt;&lt;p&gt;&lt;font color=&quot;#ffff00&quot;&gt;&amp;nbsp;&lt;/font&gt;&lt;/p&gt;" style="text;html=1;strokeColor=#FFFFFF;fillColor=none;spacing=5;spacingTop=-20;whiteSpace=wrap;overflow=hidden;rounded=0;fontSize=12;fontColor=#FFFFFF;" parent="1" vertex="1">
                    <mxGeometry x="40" y="1430" width="480" height="100" as="geometry"/>
                </mxCell>
                <mxCell id="YnNii3DhfhroFcoP4JHG-29" value="&lt;h1&gt;&lt;font style=&quot;font-size: 16px&quot;&gt;Creo le rotte:&lt;/font&gt;&lt;/h1&gt;&lt;p&gt;&lt;/p&gt;Modifico il file routes/web.php ed eventualmente il file routes/api.php&lt;br&gt;verifico le rotte create &lt;font color=&quot;#ffff00&quot;&gt;php artisan route:list&lt;br&gt;&lt;/font&gt;verifico da browser tutti i percorsi&lt;br&gt;&lt;span style=&quot;color: rgb(255 , 255 , 0) ; font-size: 0px&quot;&gt;%3CmxGraphModel%3E%3Croot%3E%3CmxCell%20id%3D%220%22%2F%3E%3CmxCell%20id%3D%221%22%20parent%3D%220%22%2F%3E%3CmxCell%20id%3D%222%22%20value%3D%22%26lt%3Bh1%26gt%3B%26lt%3Bfont%20style%3D%26quot%3Bfont-size%3A%2016px%26quot%3B%26gt%3BSe%20clono%20repo%26lt%3B%2Ffont%26gt%3B%26lt%3B%2Fh1%26gt%3B%26lt%3Bp%26gt%3B%26lt%3Bspan%26gt%3Bapro%20vscode%20e%20clono%20repo%26lt%3B%2Fspan%26gt%3B%26lt%3Bbr%26gt%3B%26lt%3B%2Fp%26gt%3B%26lt%3Bp%26gt%3Bcreo%20file%20env%20e%20genero%20la%20key%3A%26lt%3Bspan%26gt%3B%26lt%3Bbr%26gt%3B%26lt%3B%2Fspan%26gt%3B%26lt%3B%2Fp%26gt%3B%26lt%3Bp%26gt%3B%26lt%3Bfont%20color%3D%26quot%3B%23ffff00%26quot%3B%26gt%3Bphp%20artisan%20key%3Agenerate%26lt%3B%2Ffont%26gt%3B%26lt%3Bbr%26gt%3B%26lt%3B%2Fp%26gt%3B%26lt%3Bp%26gt%3Bcreo%20db%26lt%3B%2Fp%26gt%3B%26lt%3Bp%26gt%3Bmodifico%20file%20env%20con%20impostazioni%20mie%26lt%3B%2Fp%26gt%3B%26lt%3Bp%26gt%3B%26lt%3Bspan%26gt%3Binstallo%20i%20pacchetti%20necessari%3A%26lt%3B%2Fspan%26gt%3B%26lt%3B%2Fp%26gt%3B%26lt%3Bp%26gt%3B%26lt%3Bspan%26gt%3B%26lt%3Bfont%20color%3D%26quot%3B%23ffff00%26quot%3B%26gt%3Bcomposer%20install%26lt%3B%2Ffont%26gt%3B%26lt%3B%2Fspan%26gt%3B%26lt%3B%2Fp%26gt%3B%26lt%3Bp%26gt%3B%26lt%3Bspan%26gt%3Binstallo%20pacchetti%20node%3A%20%26lt%3B%2Fspan%26gt%3B%26lt%3Bfont%20color%3D%26quot%3B%23ffff00%26quot%3B%26gt%3Bnpm%20install%26lt%3B%2Ffont%26gt%3B%26lt%3Bbr%26gt%3B%26lt%3B%2Fp%26gt%3B%26lt%3Bp%26gt%3B%26lt%3Bspan%26gt%3Blancio%20%26lt%3B%2Fspan%26gt%3B%26lt%3Bfont%20color%3D%26quot%3B%23ffff00%26quot%3B%26gt%3Bphp%20artisan%20serve%26lt%3B%2Ffont%26gt%3B%26lt%3Bspan%26gt%3B%20e%20verifico%20che%20tutto%20funzioni%26lt%3B%2Fspan%26gt%3B%26lt%3Bbr%26gt%3B%26lt%3B%2Fp%26gt%3B%26lt%3Bp%26gt%3Bcreo%20eventuale%20branch%20su%20git%26lt%3B%2Fp%26gt%3B%26lt%3Bp%26gt%3B%26lt%3Bfont%20color%3D%26quot%3B%23ffff00%26quot%3B%26gt%3B%26lt%3Bbr%26gt%3B%26lt%3B%2Ffont%26gt%3B%26lt%3B%2Fp%26gt%3B%22%20style%3D%22text%3Bhtml%3D1%3BstrokeColor%3D%23FFFFFF%3BfillColor%3Dnone%3Bspacing%3D5%3BspacingTop%3D-20%3BwhiteSpace%3Dwrap%3Boverflow%3Dhidden%3Brounded%3D0%3BfontSize%3D12%3BfontColor%3D%23FFFFFF%3B%22%20vertex%3D%221%22%20parent%3D%221%22%3E%3CmxGeometry%20x%3D%22450%22%20y%3D%22130%22%20width%3D%22330%22%20height%3D%22320%22%20as%3D%22geometry%22%2F%3E%3C%2FmxCell%3E%3C%2Froot%3E%3C%2FmxGraphModel%3E&lt;/span&gt;&lt;span style=&quot;color: rgb(255 , 255 , 0) ; font-size: 0px&quot;&gt;%3CmxGraphModel%3E%3Croot%3E%3CmxCell%20id%3D%220%22%2F%3E%3CmxCell%20id%3D%221%22%20parent%3D%220%22%2F%3E%3CmxCell%20id%3D%222%22%20value%3D%22%26lt%3Bh1%26gt%3B%26lt%3Bfont%20style%3D%26quot%3Bfont-size%3A%2016px%26quot%3B%26gt%3BSe%20clono%20repo%26lt%3B%2Ffont%26gt%3B%26lt%3B%2Fh1%26gt%3B%26lt%3Bp%26gt%3B%26lt%3Bspan%26gt%3Bapro%20vscode%20e%20clono%20repo%26lt%3B%2Fspan%26gt%3B%26lt%3Bbr%26gt%3B%26lt%3B%2Fp%26gt%3B%26lt%3Bp%26gt%3Bcreo%20file%20env%20e%20genero%20la%20key%3A%26lt%3Bspan%26gt%3B%26lt%3Bbr%26gt%3B%26lt%3B%2Fspan%26gt%3B%26lt%3B%2Fp%26gt%3B%26lt%3Bp%26gt%3B%26lt%3Bfont%20color%3D%26quot%3B%23ffff00%26quot%3B%26gt%3Bphp%20artisan%20key%3Agenerate%26lt%3B%2Ffont%26gt%3B%26lt%3Bbr%26gt%3B%26lt%3B%2Fp%26gt%3B%26lt%3Bp%26gt%3Bcreo%20db%26lt%3B%2Fp%26gt%3B%26lt%3Bp%26gt%3Bmodifico%20file%20env%20con%20impostazioni%20mie%26lt%3B%2Fp%26gt%3B%26lt%3Bp%26gt%3B%26lt%3Bspan%26gt%3Binstallo%20i%20pacchetti%20necessari%3A%26lt%3B%2Fspan%26gt%3B%26lt%3B%2Fp%26gt%3B%26lt%3Bp%26gt%3B%26lt%3Bspan%26gt%3B%26lt%3Bfont%20color%3D%26quot%3B%23ffff00%26quot%3B%26gt%3Bcomposer%20install%26lt%3B%2Ffont%26gt%3B%26lt%3B%2Fspan%26gt%3B%26lt%3B%2Fp%26gt%3B%26lt%3Bp%26gt%3B%26lt%3Bspan%26gt%3Binstallo%20pacchetti%20node%3A%20%26lt%3B%2Fspan%26gt%3B%26lt%3Bfont%20color%3D%26quot%3B%23ffff00%26quot%3B%26gt%3Bnpm%20install%26lt%3B%2Ffont%26gt%3B%26lt%3Bbr%26gt%3B%26lt%3B%2Fp%26gt%3B%26lt%3Bp%26gt%3B%26lt%3Bspan%26gt%3Blancio%20%26lt%3B%2Fspan%26gt%3B%26lt%3Bfont%20color%3D%26quot%3B%23ffff00%26quot%3B%26gt%3Bphp%20artisan%20serve%26lt%3B%2Ffont%26gt%3B%26lt%3Bspan%26gt%3B%20e%20verifico%20che%20tutto%20funzioni%26lt%3B%2Fspan%26gt%3B%26lt%3Bbr%26gt%3B%26lt%3B%2Fp%26gt%3B%26lt%3Bp%26gt%3Bcreo%20eventuale%20branch%20su%20git%26lt%3B%2Fp%26gt%3B%26lt%3Bp%26gt%3B%26lt%3Bfont%20color%3D%26quot%3B%23ffff00%26quot%3B%26gt%3B%26lt%3Bbr%26gt%3B%26lt%3B%2Ffont%26gt%3B%26lt%3B%2Fp%26gt%3B%22%20style%3D%22text%3Bhtml%3D1%3BstrokeColor%3D%23FFFFFF%3BfillColor%3Dnone%3Bspacing%3D5%3BspacingTop%3D-20%3BwhiteSpace%3Dwrap%3Boverflow%3Dhidden%3Brounded%3D0%3BfontSize%3D12%3BfontColor%3D%23FFFFFF%3B%22%20vertex%3D%221%22%20parent%3D%221%22%3E%3CmxGeometry%20x%3D%22450%22%20y%3D%22130%22%20width%3D%22330%22%20height%3D%22320%22%20as%3D%22geometry%22%2F%3E%3C%2FmxCell%3E%3C%2Froot%3E%3C%2FmxGraphModel%&lt;br&gt;&lt;/span&gt;" style="text;html=1;strokeColor=#FFFFFF;fillColor=none;spacing=5;spacingTop=-20;whiteSpace=wrap;overflow=hidden;rounded=0;fontSize=12;fontColor=#FFFFFF;" parent="1" vertex="1">
                    <mxGeometry x="40" y="1580" width="480" height="120" as="geometry"/>
                </mxCell>
                <mxCell id="YnNii3DhfhroFcoP4JHG-31" value="&lt;b&gt;Esempio metodo index di un controller&lt;br&gt;con namespace Admin:&lt;br&gt;&lt;br&gt;&lt;/b&gt;&lt;div style=&quot;font-size: 10px&quot;&gt;&lt;div&gt;public function index(){&lt;span&gt;&amp;nbsp; &amp;nbsp; &amp;nbsp;&lt;/span&gt;&lt;/div&gt;&lt;div&gt;&amp;nbsp; &amp;nbsp; &amp;nbsp; &amp;nbsp; $posts = Post::all();&lt;/div&gt;&lt;div&gt;&amp;nbsp; &amp;nbsp; &amp;nbsp; &amp;nbsp; return view('admin.posts.index', compact('posts'));&lt;/div&gt;&lt;div&gt;&amp;nbsp; &amp;nbsp; }&lt;/div&gt;&lt;/div&gt;" style="text;html=1;strokeColor=#B09500;fillColor=#e3c800;align=left;verticalAlign=middle;whiteSpace=wrap;rounded=0;fontFamily=Helvetica;fontSize=10;fontColor=#000000;" parent="1" vertex="1">
                    <mxGeometry x="530" y="1200" width="280" height="190" as="geometry"/>
                </mxCell>
                <mxCell id="YnNii3DhfhroFcoP4JHG-32" value="&lt;div style=&quot;text-align: left ; font-size: 10px&quot;&gt;&lt;br&gt;&lt;/div&gt;&lt;div style=&quot;text-align: left ; font-size: 10px&quot;&gt;&lt;b&gt;Abilitare mass assignement nel model:&lt;/b&gt;&lt;/div&gt;&lt;div style=&quot;text-align: left ; font-size: 10px&quot;&gt;&lt;span&gt;//per singoli campi&lt;/span&gt;&lt;br&gt;&lt;/div&gt;&lt;div style=&quot;text-align: left ; font-size: 10px&quot;&gt;protectd $fillable['name', 'description'];&lt;span&gt;&lt;br&gt;&lt;/span&gt;&lt;/div&gt;&lt;div style=&quot;text-align: left ; font-size: 10px&quot;&gt;&lt;br&gt;&lt;/div&gt;&lt;div style=&quot;text-align: left ; font-size: 10px&quot;&gt;//per tutti i campi&lt;/div&gt;&lt;div style=&quot;text-align: left ; font-size: 10px&quot;&gt;protected $guarded=[];&lt;/div&gt;&lt;div style=&quot;text-align: left ; font-size: 10px&quot;&gt;&lt;br&gt;&lt;/div&gt;&lt;div style=&quot;text-align: left ; font-size: 10px&quot;&gt;&lt;b&gt;Specificare nome tabella nel model:&lt;/b&gt;&lt;br&gt;&lt;/div&gt;&lt;div style=&quot;text-align: left ; font-size: 10px&quot;&gt;protected $table='nome_tabella';&lt;/div&gt;&lt;div style=&quot;text-align: left ; font-size: 10px&quot;&gt;&lt;br&gt;&lt;/div&gt;&lt;div style=&quot;text-align: left ; font-size: 10px&quot;&gt;&lt;br&gt;&lt;/div&gt;" style="text;html=1;strokeColor=#B09500;fillColor=#e3c800;align=center;verticalAlign=middle;whiteSpace=wrap;rounded=0;fontSize=10;fontColor=#000000;" parent="1" vertex="1">
                    <mxGeometry x="540" y="800" width="260" height="120" as="geometry"/>
                </mxCell>
                <mxCell id="27" value="&lt;b&gt;&lt;font style=&quot;font-size: 14px&quot;&gt;&lt;span&gt;boostrap 5&lt;/span&gt;&lt;br&gt;&lt;/font&gt;&lt;/b&gt;&lt;font color=&quot;#ffff00&quot;&gt;&lt;span&gt;npm install bootstrap@5 @popperjs/core&lt;/span&gt;&lt;br&gt;&lt;span&gt;npm remove jquery popper.js&lt;/span&gt;&lt;br&gt;&lt;/font&gt;in 'resources/js/bootstrap.js' remove 'require(&quot;jquery&quot;)' and replace 'popper.js' with '&lt;font color=&quot;#ffff00&quot;&gt;@popperjs/core&lt;/font&gt;'" style="rounded=0;whiteSpace=wrap;html=1;" parent="1" vertex="1">
                    <mxGeometry x="-290" y="330" width="260" height="90" as="geometry"/>
                </mxCell>
            </root>
        </mxGraphModel>
    </diagram>
    <diagram id="BvBdxhd0rVTqoUJPIA4A" name="Page-2">
        <mxGraphModel grid="1" gridSize="10" guides="1" tooltips="1" connect="1" arrows="1" page="1" fold="1" pageScale="1" pageWidth="827" pageHeight="1169" math="0" shadow="0">
            <root>
                <mxCell id="dGOpuBiseX3lURQI40ha-0"/>
                <mxCell id="dGOpuBiseX3lURQI40ha-1" parent="dGOpuBiseX3lURQI40ha-0"/>
            </root>
        </mxGraphModel>
    </diagram>
</mxfile>